<svg width="36" height="32" viewBox="0 0 36 32" fill="none" xmlns="http://www.w3.org/2000/svg">
<path d="M14.1356 26.5C10.3888 26.5 7.21041 25.3115 4.60047 22.9344C1.99052 20.5573 0.685547 17.6625 0.685547 14.25V3.75C0.685547 2.7875 1.06183 1.96354 1.81439 1.27812C2.56695 0.592708 3.47163 0.25 4.52841 0.25H28.5463C30.4037 0.25 31.9889 0.847917 33.3019 2.04375C34.6149 3.23958 35.2713 4.68333 35.2713 6.375C35.2713 8.06667 34.6149 9.51042 33.3019 10.7063C31.9889 11.9021 30.4037 12.5 28.5463 12.5H27.5856V14.25C27.5856 17.6625 26.2806 20.5573 23.6707 22.9344C21.0607 25.3115 17.8824 26.5 14.1356 26.5ZM4.52841 9H23.7427V3.75H4.52841V9ZM14.1356 23C16.7936 23 19.0593 22.1469 20.9327 20.4406C22.806 18.7344 23.7427 16.6708 23.7427 14.25V12.5H4.52841V14.25C4.52841 16.6708 5.46511 18.7344 7.33851 20.4406C9.21191 22.1469 11.4776 23 14.1356 23ZM27.5856 9H28.5463C29.3469 9 30.0274 8.74479 30.5879 8.23438C31.1483 7.72396 31.4285 7.10417 31.4285 6.375C31.4285 5.64583 31.1483 5.02604 30.5879 4.51562C30.0274 4.00521 29.3469 3.75 28.5463 3.75H27.5856V9ZM2.60698 31.75C2.06257 31.75 1.60623 31.5823 1.23796 31.2469C0.869684 30.9115 0.685547 30.4958 0.685547 30C0.685547 29.5042 0.869684 29.0885 1.23796 28.7531C1.60623 28.4177 2.06257 28.25 2.60698 28.25H29.507C30.0515 28.25 30.5078 28.4177 30.8761 28.7531C31.2443 29.0885 31.4285 29.5042 31.4285 30C31.4285 30.4958 31.2443 30.9115 30.8761 31.2469C30.5078 31.5823 30.0515 31.75 29.507 31.75H2.60698Z" fill="#606060"/>
</svg>
