<svg width="31" height="39" viewBox="0 0 31 39" fill="none" xmlns="http://www.w3.org/2000/svg">
<path d="M12.1854 31.4866L23.3125 19.3449H14.7118L16.2707 8.23139L6.32615 21.3033H13.798L12.1854 31.4866ZM8.85261 25.2199H2.18707C1.327 25.2199 0.690902 24.8691 0.278785 24.1673C-0.133332 23.4656 -0.0885366 22.7883 0.413171 22.1356L16.4857 1.08347C16.8441 0.626525 17.31 0.308296 17.8833 0.128782C18.4567 -0.0507322 19.048 -0.0425725 19.6572 0.153261C20.2665 0.349094 20.7144 0.691802 21.0011 1.18139C21.2878 1.67097 21.3953 2.19319 21.3236 2.74805L19.6035 15.4283H27.9354C28.8672 15.4283 29.5212 15.8036 29.8975 16.5543C30.2737 17.305 30.1573 18.0067 29.548 18.6595L11.8629 37.9491C11.4687 38.3734 10.9849 38.6508 10.4115 38.7814C9.83811 38.9119 9.28265 38.863 8.7451 38.6345C8.20756 38.406 7.78648 38.0552 7.48187 37.5819C7.17726 37.1086 7.0608 36.5946 7.13247 36.0397L8.85261 25.2199Z" fill="#606060"/>
</svg>
