<svg width="40" height="40" viewBox="0 0 40 40" fill="none" xmlns="http://www.w3.org/2000/svg">
<path d="M19.9042 31.5C20.575 31.5 21.1421 31.2684 21.6052 30.8052C22.0684 30.342 22.3 29.775 22.3 29.1042C22.3 28.4333 22.0684 27.8663 21.6052 27.4031C21.1421 26.9399 20.575 26.7083 19.9042 26.7083C19.2334 26.7083 18.6664 26.9399 18.2032 27.4031C17.74 27.8663 17.5084 28.4333 17.5084 29.1042C17.5084 29.775 17.74 30.342 18.2032 30.8052C18.6664 31.2684 19.2334 31.5 19.9042 31.5ZM20 39.1667C17.3487 39.1667 14.857 38.6635 12.525 37.6573C10.1931 36.651 8.16462 35.2854 6.43962 33.5604C4.71462 31.8354 3.349 29.8069 2.34275 27.475C1.3365 25.1431 0.833374 22.6514 0.833374 20C0.833374 17.3486 1.3365 14.8569 2.34275 12.525C3.349 10.1931 4.71462 8.16459 6.43962 6.43959C8.16462 4.71459 10.1931 3.34896 12.525 2.34271C14.857 1.33646 17.3487 0.833336 20 0.833336C22.6514 0.833336 25.1431 1.33646 27.475 2.34271C29.807 3.34896 31.8355 4.71459 33.5605 6.43959C35.2855 8.16459 36.6511 10.1931 37.6573 12.525C38.6636 14.8569 39.1667 17.3486 39.1667 20C39.1667 22.6514 38.6636 25.1431 37.6573 27.475C36.6511 29.8069 35.2855 31.8354 33.5605 33.5604C31.8355 35.2854 29.807 36.651 27.475 37.6573C25.1431 38.6635 22.6514 39.1667 20 39.1667ZM20 35.3333C24.2806 35.3333 27.9063 33.8479 30.8771 30.8771C33.848 27.9063 35.3334 24.2806 35.3334 20C35.3334 15.7194 33.848 12.0938 30.8771 9.12292C27.9063 6.15209 24.2806 4.66667 20 4.66667C15.7195 4.66667 12.0938 6.15209 9.12296 9.12292C6.15212 12.0938 4.66671 15.7194 4.66671 20C4.66671 24.2806 6.15212 27.9063 9.12296 30.8771C12.0938 33.8479 15.7195 35.3333 20 35.3333ZM20.1917 11.7583C20.9903 11.7583 21.6851 12.0139 22.2761 12.525C22.8671 13.0361 23.1625 13.675 23.1625 14.4417C23.1625 15.1444 22.9469 15.7674 22.5157 16.3104C22.0844 16.8535 21.5973 17.3646 21.0542 17.8438C20.3195 18.4826 19.6726 19.1854 19.1136 19.9521C18.5546 20.7188 18.275 21.5813 18.275 22.5396C18.275 22.9868 18.4427 23.3622 18.7782 23.6656C19.1136 23.9691 19.5049 24.1208 19.9521 24.1208C20.4313 24.1208 20.8386 23.9611 21.174 23.6417C21.5094 23.3222 21.725 22.9229 21.8209 22.4438C21.9487 21.7729 22.2362 21.174 22.6834 20.6469C23.1306 20.1198 23.6098 19.6167 24.1209 19.1375C24.8556 18.4347 25.4865 17.6681 26.0136 16.8375C26.5407 16.0069 26.8042 15.0806 26.8042 14.0583C26.8042 12.4292 26.1414 11.0955 24.8157 10.0573C23.49 9.0191 21.9487 8.5 20.1917 8.5C18.9778 8.5 17.8198 8.75556 16.7177 9.26667C15.6157 9.77778 14.7771 10.5604 14.2021 11.6146C13.9785 11.9979 13.9066 12.4052 13.9865 12.8365C14.0664 13.2677 14.282 13.5951 14.6334 13.8188C15.0806 14.0743 15.5438 14.1542 16.023 14.0583C16.5021 13.9625 16.9014 13.691 17.2209 13.2438C17.5723 12.7646 18.0115 12.3972 18.5386 12.1417C19.0657 11.8861 19.6167 11.7583 20.1917 11.7583Z" fill="#606060"/>
</svg>
