<svg width="26" height="31" viewBox="0 0 26 31" fill="none" xmlns="http://www.w3.org/2000/svg">
<path d="M3.25 15.5733C3.25 15.9641 3.27708 16.3489 3.33125 16.7275C3.38542 17.1062 3.48021 17.4787 3.61562 17.8452C3.75104 18.2604 3.7375 18.6574 3.575 19.0361C3.4125 19.4147 3.12812 19.6895 2.72187 19.8605C2.28854 20.0559 1.86198 20.0743 1.44219 19.9155C1.0224 19.7567 0.744792 19.4697 0.609375 19.0544C0.392708 18.4925 0.236979 17.9184 0.142187 17.3322C0.0473958 16.7459 0 16.1596 0 15.5733C0 12.2998 1.25937 9.51497 3.77812 7.21868C6.29687 4.92238 9.37083 3.77423 13 3.77423V3.77423C13.1001 3.77423 13.1476 3.65082 13.0732 3.58376L11.8219 2.45508C11.524 2.18637 11.375 1.84437 11.375 1.42908C11.375 1.01379 11.524 0.671789 11.8219 0.403073C12.1198 0.134358 12.499 0 12.9594 0C13.4198 0 13.799 0.134358 14.0969 0.403073L18.3219 4.21395C18.6469 4.50709 18.8094 4.84909 18.8094 5.23995C18.8094 5.63081 18.6469 5.97281 18.3219 6.26596L14.0969 10.0768C13.799 10.3455 13.4198 10.4799 12.9594 10.4799C12.499 10.4799 12.1198 10.3455 11.8219 10.0768C11.524 9.80812 11.375 9.46611 11.375 9.05083C11.375 8.63554 11.524 8.29354 11.8219 8.02482L13.0732 6.89614C13.1476 6.82909 13.1001 6.70567 13 6.70567V6.70567C10.2917 6.70567 7.98958 7.56678 6.09375 9.28901C4.19792 11.0112 3.25 13.106 3.25 15.5733ZM22.75 15.4267C22.75 15.0359 22.7229 14.6511 22.6687 14.2725C22.6146 13.8938 22.5198 13.5213 22.3844 13.1548C22.249 12.7396 22.2625 12.3426 22.425 11.9639C22.5875 11.5853 22.8719 11.3105 23.2781 11.1395C23.7115 10.944 24.138 10.9257 24.5578 11.0845C24.9776 11.2433 25.2552 11.5303 25.3906 11.9456C25.6073 12.5075 25.763 13.0816 25.8578 13.6678C25.9526 14.2541 26 14.8404 26 15.4267C26 18.7002 24.7406 21.485 22.2219 23.7813C19.7031 26.0776 16.6292 27.2258 13 27.2258V27.2258C12.8999 27.2258 12.8524 27.3492 12.9268 27.4162L14.1781 28.5449C14.476 28.8136 14.625 29.1556 14.625 29.5709C14.625 29.9862 14.476 30.3282 14.1781 30.5969C13.8802 30.8656 13.501 31 13.0406 31C12.5802 31 12.201 30.8656 11.9031 30.5969L7.67812 26.7861C7.35312 26.4929 7.19062 26.1509 7.19062 25.76C7.19062 25.3692 7.35312 25.0272 7.67812 24.734L11.9031 20.9232C12.201 20.6545 12.5802 20.5201 13.0406 20.5201C13.501 20.5201 13.8802 20.6545 14.1781 20.9232C14.476 21.1919 14.625 21.5339 14.625 21.9492C14.625 22.3645 14.476 22.7065 14.1781 22.9752L12.9268 24.1039C12.8524 24.1709 12.8999 24.2943 13 24.2943V24.2943C15.7083 24.2943 18.0104 23.4332 19.9062 21.711C21.8021 19.9888 22.75 17.894 22.75 15.4267Z" fill="#606060"/>
</svg>
