<svg width="29" height="29" viewBox="0 0 29 29" fill="none" xmlns="http://www.w3.org/2000/svg">
<path d="M4.4076 28.32C3.46084 28.32 2.65036 27.984 1.97615 27.3119C1.30195 26.6398 0.964844 25.8318 0.964844 24.888V18.024C0.964844 17.0802 1.30195 16.2723 1.97615 15.6002C2.65036 14.9281 3.46084 14.592 4.4076 14.592C5.35435 14.592 6.16483 14.9281 6.83904 15.6002C7.51325 16.2723 7.85035 17.0802 7.85035 18.024V24.888C7.85035 25.8318 7.51325 26.6398 6.83904 27.3119C6.16483 27.984 5.35435 28.32 4.4076 28.32ZM14.7359 28.32C13.7891 28.32 12.9786 27.984 12.3044 27.3119C11.6302 26.6398 11.2931 25.8318 11.2931 24.888V4.29601C11.2931 3.35221 11.6302 2.54426 12.3044 1.87216C12.9786 1.20006 13.7891 0.864014 14.7359 0.864014C15.6826 0.864014 16.4931 1.20006 17.1673 1.87216C17.8415 2.54426 18.1786 3.35221 18.1786 4.29601V24.888C18.1786 25.8318 17.8415 26.6398 17.1673 27.3119C16.4931 27.984 15.6826 28.32 14.7359 28.32ZM25.0641 28.32C24.1174 28.32 23.3069 27.984 22.6327 27.3119C21.9585 26.6398 21.6214 25.8318 21.6214 24.888V12.876C21.6214 11.9322 21.9585 11.1243 22.6327 10.4522C23.3069 9.78006 24.1174 9.44401 25.0641 9.44401C26.0109 9.44401 26.8213 9.78006 27.4956 10.4522C28.1698 11.1243 28.5069 11.9322 28.5069 12.876V24.888C28.5069 25.8318 28.1698 26.6398 27.4956 27.3119C26.8213 27.984 26.0109 28.32 25.0641 28.32Z" fill="#606060"/>
</svg>
