<svg width="36" height="36" viewBox="0 0 36 36" fill="none" xmlns="http://www.w3.org/2000/svg">
<path d="M17.9167 20.425L23.1125 25.6208C23.441 25.9493 23.859 26.1135 24.3667 26.1135C24.8743 26.1135 25.2924 25.9493 25.6208 25.6208C25.9493 25.2924 26.1135 24.8743 26.1135 24.3667C26.1135 23.859 25.9493 23.441 25.6208 23.1125L20.425 17.9167L25.6208 12.7208C25.9493 12.3924 26.1135 11.9743 26.1135 11.4667C26.1135 10.959 25.9493 10.541 25.6208 10.2125C25.2924 9.88403 24.8743 9.71979 24.3667 9.71979C23.859 9.71979 23.441 9.88403 23.1125 10.2125L17.9167 15.4083L12.7208 10.2125C12.3924 9.88403 11.9743 9.71979 11.4667 9.71979C10.959 9.71979 10.541 9.88403 10.2125 10.2125C9.88403 10.541 9.71979 10.959 9.71979 11.4667C9.71979 11.9743 9.88403 12.3924 10.2125 12.7208L15.4083 17.9167L10.2125 23.1125C9.88403 23.441 9.71979 23.859 9.71979 24.3667C9.71979 24.8743 9.88403 25.2924 10.2125 25.6208C10.541 25.9493 10.959 26.1135 11.4667 26.1135C11.9743 26.1135 12.3924 25.9493 12.7208 25.6208L17.9167 20.425ZM17.9167 35.8333C15.4382 35.8333 13.109 35.363 10.9292 34.4224C8.7493 33.4818 6.85312 32.2052 5.24062 30.5927C3.62812 28.9802 2.35156 27.084 1.41094 24.9042C0.470312 22.7243 0 20.3951 0 17.9167C0 15.4382 0.470312 13.109 1.41094 10.9292C2.35156 8.7493 3.62812 6.85312 5.24062 5.24062C6.85312 3.62812 8.7493 2.35156 10.9292 1.41094C13.109 0.470312 15.4382 0 17.9167 0C20.3951 0 22.7243 0.470312 24.9042 1.41094C27.084 2.35156 28.9802 3.62812 30.5927 5.24062C32.2052 6.85312 33.4818 8.7493 34.4224 10.9292C35.363 13.109 35.8333 15.4382 35.8333 17.9167C35.8333 20.3951 35.363 22.7243 34.4224 24.9042C33.4818 27.084 32.2052 28.9802 30.5927 30.5927C28.9802 32.2052 27.084 33.4818 24.9042 34.4224C22.7243 35.363 20.3951 35.8333 17.9167 35.8333ZM17.9167 32.25C21.9181 32.25 25.3073 30.8615 28.0844 28.0844C30.8615 25.3073 32.25 21.9181 32.25 17.9167C32.25 13.9153 30.8615 10.526 28.0844 7.74896C25.3073 4.97187 21.9181 3.58333 17.9167 3.58333C13.9153 3.58333 10.526 4.97187 7.74896 7.74896C4.97187 10.526 3.58333 13.9153 3.58333 17.9167C3.58333 21.9181 4.97187 25.3073 7.74896 28.0844C10.526 30.8615 13.9153 32.25 17.9167 32.25Z" fill="#515151"/>
</svg>
