<svg width="27" height="31" viewBox="0 0 27 31" fill="none" xmlns="http://www.w3.org/2000/svg">
<path d="M5.56048 26.2917L6.8709 27.6021C7.17923 27.9104 7.32697 28.2701 7.31413 28.6813C7.30128 29.0924 7.15354 29.4521 6.8709 29.7604C6.56257 30.0688 6.19642 30.2293 5.77246 30.2422C5.3485 30.255 4.98236 30.1073 4.67402 29.799L0.704232 25.8292C0.550065 25.675 0.440864 25.508 0.376628 25.3281C0.312391 25.1483 0.280273 24.9556 0.280273 24.75C0.280273 24.5444 0.312391 24.3517 0.376628 24.1719C0.440864 23.992 0.550065 23.825 0.704232 23.6708L4.67402 19.701C4.98236 19.3927 5.3485 19.245 5.77246 19.2578C6.19642 19.2707 6.56257 19.4312 6.8709 19.7396C7.15354 20.0479 7.30128 20.4076 7.31413 20.8188C7.32697 21.2299 7.17923 21.5896 6.8709 21.8979L5.56048 23.2083H21.2084V18.5833C21.2084 18.1465 21.3561 17.7804 21.6516 17.4849C21.9471 17.1894 22.3133 17.0417 22.7501 17.0417C23.1869 17.0417 23.553 17.1894 23.8485 17.4849C24.144 17.7804 24.2917 18.1465 24.2917 18.5833V23.2083C24.2917 24.0563 23.9898 24.7821 23.386 25.3859C22.7822 25.9898 22.0563 26.2917 21.2084 26.2917H5.56048ZM21.4396 7.79167H5.79173V12.4167C5.79173 12.8535 5.64399 13.2196 5.3485 13.5151C5.05302 13.8106 4.68687 13.9583 4.25007 13.9583C3.81326 13.9583 3.44711 13.8106 3.15163 13.5151C2.85614 13.2196 2.7084 12.8535 2.7084 12.4167V7.79167C2.7084 6.94375 3.01031 6.21788 3.61413 5.61406C4.21795 5.01024 4.94382 4.70833 5.79173 4.70833H21.4396L20.1292 3.39792C19.8209 3.08958 19.6732 2.72986 19.686 2.31875C19.6989 1.90764 19.8466 1.54792 20.1292 1.23958C20.4376 0.93125 20.8037 0.77066 21.2277 0.757813C21.6516 0.744966 22.0178 0.892709 22.3261 1.20104L26.2959 5.17083C26.4501 5.325 26.5593 5.49201 26.6235 5.67188C26.6877 5.85174 26.7199 6.04445 26.7199 6.25C26.7199 6.45556 26.6877 6.64826 26.6235 6.82813C26.5593 7.00799 26.4501 7.175 26.2959 7.32917L22.3261 11.299C22.0178 11.6073 21.6516 11.755 21.2277 11.7422C20.8037 11.7293 20.4376 11.5688 20.1292 11.2604C19.8466 10.9521 19.6989 10.5924 19.686 10.1813C19.6732 9.77014 19.8209 9.41042 20.1292 9.10208L21.4396 7.79167Z" fill="#606060"/>
</svg>
